<svg width="145" height="145" viewBox="0 0 145 145" fill="none"
    xmlns="http://www.w3.org/2000/svg">
    <rect x="1" y="1" width="143" height="143" rx="50" fill="white"/>
    <path d="M72.5006 0.5H72.5C58.2597 0.5 44.3392 4.72273 32.4988 12.6342C20.6586 20.5457 11.4302 31.7906 5.98069 44.9469C0.531208 58.103 -0.894653 72.5799 1.8835 86.5465C4.66162 100.513 11.519 113.342 21.5884 123.412L21.9419 123.058L21.5884 123.412C31.6577 133.481 44.4868 140.338 58.4535 143.117C72.4202 145.895 86.8971 144.469 100.053 139.019C113.209 133.57 124.454 124.341 132.366 112.501C140.277 100.661 144.5 86.7403 144.5 72.5V72.4994C144.478 53.4108 136.886 35.1098 123.388 21.6121C109.89 8.11423 91.5893 0.521666 72.5006 0.5ZM136.808 76.25C136.396 83.7427 134.669 91.1049 131.705 98H112.543C114.081 90.846 114.952 83.5649 115.144 76.25H136.808ZM13.2949 98C10.3311 91.1049 8.6039 83.7427 8.19185 76.25H29.8562C30.0483 83.5649 30.9191 90.846 32.457 98H13.2949ZM8.19185 68.75C8.6039 61.2573 10.3311 53.8951 13.2949 47H32.457C30.9191 54.154 30.0483 61.4351 29.8562 68.75H8.19185ZM76.25 39.5V8.39715C87.4021 10.58 97.1215 22.4139 102.727 39.5H76.25ZM76.25 47H104.847C106.506 54.1385 107.447 61.4248 107.656 68.75H76.25V47ZM42.2734 39.5C47.8785 22.4139 57.5979 10.58 68.75 8.39715V39.5H42.2734ZM68.75 47V68.75H37.3543C37.563 61.4248 38.5039 54.1385 40.1625 47H68.75ZM40.1529 98C38.4975 90.8612 37.5597 83.5749 37.3541 76.25H68.75V98H40.1529ZM68.75 105.5V136.603C57.5979 134.42 47.8785 122.586 42.2734 105.5H68.75ZM76.25 136.603V105.5H102.727C97.1215 122.586 87.4021 134.42 76.25 136.603ZM76.25 98V76.25H107.646C107.437 83.5752 106.496 90.8615 104.838 98H76.25ZM131.705 47C134.669 53.8951 136.396 61.2573 136.808 68.75H115.144C114.952 61.4351 114.081 54.154 112.543 47H131.705ZM110.625 39.5C107.938 29.6317 103.107 20.4851 96.4835 12.7097C109.562 17.9816 120.574 27.3847 127.83 39.5H110.625ZM17.1699 39.5C24.4258 27.3847 35.438 17.9816 48.5165 12.7097C41.8932 20.4851 37.0616 29.6317 34.3746 39.5H17.1699ZM48.5165 132.29C35.438 127.018 24.4258 117.615 17.1699 105.5H34.3746C37.0617 115.368 41.8932 124.515 48.5165 132.29ZM110.625 105.5H127.83C120.574 117.615 109.562 127.018 96.4835 132.29C103.107 124.515 107.938 115.368 110.625 105.5Z" fill="url(#paint0_linear_25_21)" stroke="white"/>
    <path d="M13.2383 89L5.07422 59H13.4922L18.1406 79.1562H18.4141L23.2578 59H31.5195L36.4414 79.0391H36.6953L41.2656 59H49.6641L41.5195 89H32.7109L27.5547 70.1328H27.1836L22.0273 89H13.2383ZM60.0205 89L51.8564 59H60.2744L64.9229 79.1562H65.1963L70.04 59H78.3018L83.2236 79.0391H83.4775L88.0479 59H96.4463L88.3018 89H79.4932L74.3369 70.1328H73.9658L68.8096 89H60.0205ZM106.803 89L98.6387 59H107.057L111.705 79.1562H111.979L116.822 59H125.084L130.006 79.0391H130.26L134.83 59H143.229L135.084 89H126.275L121.119 70.1328H120.748L115.592 89H106.803Z" fill="#F90F00"/>
    <defs>
        <linearGradient id="paint0_linear_25_21" x1="72.5" y1="1" x2="124" y2="412" gradientUnits="userSpaceOnUse">
            <stop stop-color="#34AC8F"/>
            <stop offset="1" stop-color="#00FFC2" stop-opacity="0"/>
        </linearGradient>
    </defs>
</svg>
